ply
format ascii 1.0
element vertex 49
property float x
property float y
property float z
property uchar red
property uchar green
property uchar blue
property float opacity
property float scale_0
property float scale_1
property float scale_2
property float rot_0
property float rot_1
property float rot_2
property float rot_3
end_header
-1.80 0.35 -1.80 214 68 55 4.0 -2.20 -2.05 -2.35 1.0 0.0 0.0 0.0
-1.20 0.35 -1.80 230 108 67 4.0 -2.20 -2.05 -2.35 1.0 0.0 0.0 0.0
-0.60 0.35 -1.80 238 153 82 4.0 -2.20 -2.05 -2.35 1.0 0.0 0.0 0.0
0.00 0.35 -1.80 235 190 92 4.0 -2.20 -2.05 -2.35 1.0 0.0 0.0 0.0
0.60 0.35 -1.80 164 190 95 4.0 -2.20 -2.05 -2.35 1.0 0.0 0.0 0.0
1.20 0.35 -1.80 76 166 117 4.0 -2.20 -2.05 -2.35 1.0 0.0 0.0 0.0
1.80 0.35 -1.80 56 137 184 4.0 -2.20 -2.05 -2.35 1.0 0.0 0.0 0.0
-1.80 0.70 -1.80 210 75 63 4.0 -2.20 -2.05 -2.35 1.0 0.0 0.0 0.0
-1.20 0.70 -1.80 226 116 75 4.0 -2.20 -2.05 -2.35 1.0 0.0 0.0 0.0
-0.60 0.70 -1.80 234 160 90 4.0 -2.20 -2.05 -2.35 1.0 0.0 0.0 0.0
0.00 0.70 -1.80 231 198 101 4.0 -2.20 -2.05 -2.35 1.0 0.0 0.0 0.0
0.60 0.70 -1.80 171 198 105 4.0 -2.20 -2.05 -2.35 1.0 0.0 0.0 0.0
1.20 0.70 -1.80 84 174 127 4.0 -2.20 -2.05 -2.35 1.0 0.0 0.0 0.0
1.80 0.70 -1.80 65 145 193 4.0 -2.20 -2.05 -2.35 1.0 0.0 0.0 0.0
-1.80 1.05 -1.80 202 78 72 4.0 -2.20 -2.05 -2.35 1.0 0.0 0.0 0.0
-1.20 1.05 -1.80 218 119 85 4.0 -2.20 -2.05 -2.35 1.0 0.0 0.0 0.0
-0.60 1.05 -1.80 226 164 100 4.0 -2.20 -2.05 -2.35 1.0 0.0 0.0 0.0
0.00 1.05 -1.80 223 202 112 4.0 -2.20 -2.05 -2.35 1.0 0.0 0.0 0.0
0.60 1.05 -1.80 179 202 117 4.0 -2.20 -2.05 -2.35 1.0 0.0 0.0 0.0
1.20 1.05 -1.80 95 178 139 4.0 -2.20 -2.05 -2.35 1.0 0.0 0.0 0.0
1.80 1.05 -1.80 76 149 204 4.0 -2.20 -2.05 -2.35 1.0 0.0 0.0 0.0
-1.80 1.40 -1.80 190 79 82 4.0 -2.20 -2.05 -2.35 1.0 0.0 0.0 0.0
-1.20 1.40 -1.80 207 121 97 4.0 -2.20 -2.05 -2.35 1.0 0.0 0.0 0.0
-0.60 1.40 -1.80 216 166 112 4.0 -2.20 -2.05 -2.35 1.0 0.0 0.0 0.0
0.00 1.40 -1.80 215 204 125 4.0 -2.20 -2.05 -2.35 1.0 0.0 0.0 0.0
0.60 1.40 -1.80 185 204 130 4.0 -2.20 -2.05 -2.35 1.0 0.0 0.0 0.0
1.20 1.40 -1.80 108 179 152 4.0 -2.20 -2.05 -2.35 1.0 0.0 0.0 0.0
1.80 1.40 -1.80 91 150 215 4.0 -2.20 -2.05 -2.35 1.0 0.0 0.0 0.0
-1.80 1.75 -1.80 176 78 91 4.0 -2.20 -2.05 -2.35 1.0 0.0 0.0 0.0
-1.20 1.75 -1.80 194 120 107 4.0 -2.20 -2.05 -2.35 1.0 0.0 0.0 0.0
-0.60 1.75 -1.80 204 166 123 4.0 -2.20 -2.05 -2.35 1.0 0.0 0.0 0.0
0.00 1.75 -1.80 204 203 137 4.0 -2.20 -2.05 -2.35 1.0 0.0 0.0 0.0
0.60 1.75 -1.80 190 203 143 4.0 -2.20 -2.05 -2.35 1.0 0.0 0.0 0.0
1.20 1.75 -1.80 122 178 164 4.0 -2.20 -2.05 -2.35 1.0 0.0 0.0 0.0
1.80 1.75 -1.80 106 148 224 4.0 -2.20 -2.05 -2.35 1.0 0.0 0.0 0.0
-1.80 2.10 -1.80 160 76 98 4.0 -2.20 -2.05 -2.35 1.0 0.0 0.0 0.0
-1.20 2.10 -1.80 179 118 115 4.0 -2.20 -2.05 -2.35 1.0 0.0 0.0 0.0
-0.60 2.10 -1.80 191 163 132 4.0 -2.20 -2.05 -2.35 1.0 0.0 0.0 0.0
0.00 2.10 -1.80 194 200 147 4.0 -2.20 -2.05 -2.35 1.0 0.0 0.0 0.0
0.60 2.10 -1.80 194 200 153 4.0 -2.20 -2.05 -2.35 1.0 0.0 0.0 0.0
1.20 2.10 -1.80 136 175 176 4.0 -2.20 -2.05 -2.35 1.0 0.0 0.0 0.0
1.80 2.10 -1.80 121 145 231 4.0 -2.20 -2.05 -2.35 1.0 0.0 0.0 0.0
-1.80 2.45 -1.80 144 73 103 4.0 -2.20 -2.05 -2.35 1.0 0.0 0.0 0.0
-1.20 2.45 -1.80 164 114 121 4.0 -2.20 -2.05 -2.35 1.0 0.0 0.0 0.0
-0.60 2.45 -1.80 178 159 139 4.0 -2.20 -2.05 -2.35 1.0 0.0 0.0 0.0
0.00 2.45 -1.80 184 195 155 4.0 -2.20 -2.05 -2.35 1.0 0.0 0.0 0.0
0.60 2.45 -1.80 196 195 162 4.0 -2.20 -2.05 -2.35 1.0 0.0 0.0 0.0
1.20 2.45 -1.80 149 170 184 4.0 -2.20 -2.05 -2.35 1.0 0.0 0.0 0.0
1.80 2.45 -1.80 135 140 237 4.0 -2.20 -2.05 -2.35 1.0 0.0 0.0 0.0
